<svg xmlns="http://www.w3.org/2000/svg" width="400" height="400" viewBox="0 0 400 400">
  <!-- Background -->
  <rect x="0" y="0" width="400" height="400" fill="#fcf8f3"/>
  <!-- Circles -->
  <circle cx="75" cy="150" r="50" fill="#f4a582"/>
  <circle cx="150" cy="75" r="50" fill="#9ebcda"/>
  <circle cx="225" cy="150" r="50" fill="#c7e9c0"/>
  <circle cx="300" cy="75" r="50" fill="#e28413"/>
  <circle cx="75" cy="250" r="50" fill="#9ebcda"/>
  <circle cx="150" cy="325" r="50" fill="#c7e9c0"/>
  <circle cx="225" cy="250" r="50" fill="#e28413"/>
  <circle cx="300" cy="325" r="50" fill="#f4a582"/>
  <!-- Paths -->
  <path d="M125 100 C125 50 200 50 200 100" stroke="#f4a582" stroke-width="20" fill="none"/>
  <path d="M200 125 C250 125 250 200 200 200" stroke="#9ebcda" stroke-width="20" fill="none"/>
  <path d="M275 100 C275 50 200 50 200 100" stroke="#c7e9c0" stroke-width="20" fill="none"/>
  <path d="M200 175 C250 175 250 250 200 250" stroke="#e28413" stroke-width="20" fill="none"/>
  <path d="M75 225 C75 275 150 275 150 225" stroke="#9ebcda" stroke-width="20" fill="none"/>
  <path d="M150 300 C200 300 200 375 150 375" stroke="#c7e9c0" stroke-width="20" fill="none"/>
  <path d="M225 225 C225 275 300 275 300 225" stroke="#e28413" stroke-width="20" fill="none"/>
  <path d="M300 300 C250 300 250 375 300 375" stroke="#f4a582" stroke-width="20" fill="none"/>
</svg>
